<svg width="219" height="60" viewBox="0 0 219 60" fill="none" xmlns="http://www.w3.org/2000/svg">
<path d="M78.4 44.18C78.4 45.1 78.1 45.86 77.5 46.46C76.94 47.06 76.22 47.36 75.34 47.36C74.3 47.36 73.5 47.02 72.94 46.34L63.52 35.12L59.38 39.02V44.18C59.38 45.06 59.06 45.82 58.42 46.46C57.82 47.06 57.08 47.36 56.2 47.36C55.36 47.36 54.62 47.06 53.98 46.46C53.38 45.82 53.08 45.06 53.08 44.18V9.8C53.08 8.92 53.38 8.18 53.98 7.58C54.62 6.94 55.38 6.62 56.26 6.62C57.1 6.62 57.82 6.94 58.42 7.58C59.06 8.18 59.38 8.92 59.38 9.8V32.06L72.94 18.44C73.46 17.92 74.14 17.66 74.98 17.66C75.74 17.66 76.4 17.96 76.96 18.56C77.52 19.12 77.8 19.8 77.8 20.6C77.8 21.36 77.52 22.02 76.96 22.58L68.14 31.34L77.68 42.14C78.16 42.66 78.4 43.34 78.4 44.18ZM84.662 44.18V9.8C84.662 8.92 84.962 8.18 85.562 7.58C86.202 6.94 86.962 6.62 87.842 6.62C88.682 6.62 89.402 6.94 90.002 7.58C90.642 8.18 90.962 8.92 90.962 9.8V44.18C90.962 45.06 90.642 45.82 90.002 46.46C89.402 47.06 88.682 47.36 87.842 47.36C86.962 47.36 86.202 47.06 85.562 46.46C84.962 45.82 84.662 45.06 84.662 44.18ZM123.135 27.8V44.18C123.135 45.06 122.815 45.82 122.175 46.46C121.575 47.06 120.835 47.36 119.955 47.36C119.115 47.36 118.375 47.06 117.735 46.46C117.135 45.82 116.835 45.06 116.835 44.18V43.88C114.595 46.44 111.475 47.72 107.475 47.72C104.795 47.72 102.435 46.86 100.395 45.14C98.3947 43.38 97.3947 41.04 97.3947 38.12C97.3947 35.12 98.3747 32.8 100.335 31.16C102.335 29.52 104.715 28.7 107.475 28.7C111.555 28.7 114.675 29.94 116.835 32.42V28.1C116.835 26.42 116.215 25.1 114.975 24.14C113.735 23.18 112.095 22.7 110.055 22.7C107.655 22.7 105.395 23.42 103.275 24.86C102.875 25.14 102.395 25.28 101.835 25.28C101.155 25.28 100.555 25.04 100.035 24.56C99.5547 24.04 99.3147 23.44 99.3147 22.76C99.3147 21.84 99.6747 21.16 100.395 20.72C103.475 18.44 107.035 17.3 111.075 17.3C114.795 17.3 117.735 18.18 119.895 19.94C122.055 21.66 123.135 24.28 123.135 27.8ZM116.835 40.4V36.02C115.355 34.02 113.055 33.02 109.935 33.02C108.135 33.02 106.655 33.5 105.495 34.46C104.335 35.42 103.755 36.68 103.755 38.24C103.755 39.8 104.335 41.06 105.495 42.02C106.655 42.94 108.135 43.4 109.935 43.4C113.055 43.4 115.355 42.4 116.835 40.4ZM129.323 42.44C129.323 41.68 129.583 41.04 130.103 40.52C130.623 40 131.263 39.74 132.023 39.74C132.583 39.74 133.083 39.88 133.523 40.16C136.083 41.88 138.743 42.74 141.503 42.74C143.303 42.74 144.703 42.44 145.703 41.84C146.703 41.2 147.203 40.32 147.203 39.2C147.203 38.08 146.683 37.24 145.643 36.68C144.643 36.08 142.963 35.52 140.603 35C138.243 34.52 136.363 34.02 134.963 33.5C131.443 32.1 129.683 29.64 129.683 26.12C129.683 23.64 130.703 21.56 132.743 19.88C134.823 18.16 137.603 17.3 141.083 17.3C144.683 17.3 147.903 18.24 150.743 20.12C151.503 20.64 151.883 21.34 151.883 22.22C151.883 22.9 151.623 23.5 151.103 24.02C150.623 24.5 150.043 24.74 149.363 24.74C148.843 24.74 148.383 24.6 147.983 24.32C145.943 23 143.663 22.34 141.143 22.34C139.463 22.34 138.143 22.64 137.183 23.24C136.223 23.8 135.743 24.58 135.743 25.58C135.743 26.54 136.223 27.28 137.183 27.8C138.143 28.32 139.763 28.84 142.043 29.36C144.363 29.84 146.263 30.38 147.743 30.98C151.423 32.34 153.263 34.92 153.263 38.72C153.263 41.4 152.183 43.58 150.023 45.26C147.903 46.9 144.963 47.72 141.203 47.72C137.083 47.72 133.523 46.7 130.523 44.66C129.723 44.14 129.323 43.4 129.323 42.44ZM159.963 11.24C159.203 10.48 158.823 9.56 158.823 8.48C158.823 7.4 159.203 6.48 159.963 5.72C160.763 4.96 161.683 4.58 162.723 4.58C163.803 4.58 164.723 4.96 165.483 5.72C166.243 6.48 166.623 7.4 166.623 8.48C166.623 9.56 166.243 10.48 165.483 11.24C164.723 12 163.803 12.38 162.723 12.38C161.683 12.38 160.763 12 159.963 11.24ZM159.603 44.18V20.84C159.603 19.96 159.903 19.22 160.503 18.62C161.143 17.98 161.903 17.66 162.783 17.66C163.623 17.66 164.343 17.98 164.943 18.62C165.583 19.22 165.903 19.96 165.903 20.84V44.18C165.903 45.06 165.583 45.82 164.943 46.46C164.343 47.06 163.603 47.36 162.723 47.36C161.883 47.36 161.143 47.06 160.503 46.46C159.903 45.82 159.603 45.06 159.603 44.18ZM181.876 16.4V18.02H185.356C186.116 18.02 186.756 18.3 187.276 18.86C187.836 19.38 188.116 20.02 188.116 20.78C188.116 21.54 187.836 22.2 187.276 22.76C186.756 23.28 186.116 23.54 185.356 23.54H181.876V44.18C181.876 45.06 181.556 45.82 180.916 46.46C180.316 47.06 179.596 47.36 178.756 47.36C177.876 47.36 177.116 47.06 176.476 46.46C175.876 45.82 175.576 45.06 175.576 44.18V23.54H173.176C172.416 23.54 171.756 23.28 171.196 22.76C170.676 22.2 170.416 21.54 170.416 20.78C170.416 20.02 170.676 19.38 171.196 18.86C171.756 18.3 172.416 18.02 173.176 18.02H175.576V16.4C175.576 13.28 176.396 10.84 178.036 9.08C179.716 7.28 181.956 6.38 184.756 6.38C185.796 6.38 186.776 6.5 187.696 6.74C188.976 7.06 189.616 7.86 189.616 9.14C189.616 10.82 188.796 11.66 187.156 11.66C186.996 11.66 186.756 11.64 186.436 11.6C186.156 11.56 185.976 11.54 185.896 11.54C184.656 11.54 183.676 11.96 182.956 12.8C182.236 13.64 181.876 14.84 181.876 16.4ZM194.333 53.18H194.633C196.673 53.18 198.053 52.34 198.773 50.66L200.213 47.36L189.893 21.92C189.773 21.56 189.713 21.18 189.713 20.78C189.713 19.9 190.013 19.16 190.613 18.56C191.213 17.96 191.933 17.66 192.773 17.66C193.413 17.66 194.013 17.86 194.573 18.26C195.133 18.62 195.513 19.08 195.713 19.64L203.513 39.74L211.313 19.64C211.513 19.08 211.893 18.62 212.453 18.26C213.013 17.86 213.613 17.66 214.253 17.66C215.133 17.66 215.873 17.96 216.473 18.56C217.073 19.16 217.373 19.9 217.373 20.78C217.373 21.14 217.293 21.54 217.133 21.98L204.773 52.22C203.853 54.54 202.573 56.2 200.933 57.2C199.333 58.2 197.293 58.72 194.813 58.76C194.373 58.76 194.073 58.74 193.913 58.7C193.193 58.62 192.573 58.32 192.053 57.8C191.573 57.28 191.333 56.66 191.333 55.94C191.333 55.18 191.633 54.52 192.233 53.96C192.833 53.44 193.533 53.18 194.333 53.18Z" fill="#0288D1"/>
<path fill-rule="evenodd" clip-rule="evenodd" d="M0 20C0 12.268 6.26801 6 14 6H27C34.732 6 41 12.268 41 20V33C41 40.732 34.732 47 27 47H14C10.0582 47 6.4969 45.3709 3.9526 42.7494L15.7505 32.6908L15.658 35.1081C15.584 37.0441 18.0306 37.9438 19.2285 36.4211L21.4624 33.5813C21.9982 32.9004 22.9115 32.6418 23.7247 32.9408L27.1158 34.1879C28.9341 34.8566 30.5459 32.8078 29.4679 31.198L27.4574 28.1958C26.9753 27.4759 27.0116 26.5274 27.5473 25.8464L29.7813 23.0066C30.9792 21.4839 29.5287 19.3179 27.6645 19.8457L24.188 20.83C23.3544 21.0661 22.4635 20.7385 21.9814 20.0185L19.9709 17.0164C18.8929 15.4065 16.3847 16.1167 16.3106 18.0528L16.1725 21.6633C16.1393 22.5291 15.5525 23.2751 14.7188 23.5111L11.2423 24.4955C9.37813 25.0233 9.27846 27.6282 11.0968 28.2969L13.6527 29.2368L0.309212 35.94C0.106624 34.992 0 34.0084 0 33V20Z" fill="#0288D1"/>
</svg>
